<?xml version="1.0" encoding="UTF-8" standalone="no"?>
<svg xmlns="http://www.w3.org/2000/svg" xmlns:xlink="http://www.w3.org/1999/xlink" contentStyleType="text/css" height="289px" preserveAspectRatio="none" style="width:836px;height:289px;background:#FFFFFF;" version="1.1" viewBox="0 0 836 289" width="836px" zoomAndPan="magnify"><defs/><g><!--MD5=[08f242bd2637fa86ba5f3dd7778b72ec]
entity Reactor--><g id="elem_Reactor"><rect fill="#F1F1F1" height="46.2969" rx="2.5" ry="2.5" style="stroke:#181818;stroke-width:0.5;" width="97" x="312.5" y="130"/><rect fill="#F1F1F1" height="10" style="stroke:#181818;stroke-width:0.5;" width="15" x="389.5" y="135"/><rect fill="#F1F1F1" height="2" style="stroke:#181818;stroke-width:0.5;" width="4" x="387.5" y="137"/><rect fill="#F1F1F1" height="2" style="stroke:#181818;stroke-width:0.5;" width="4" x="387.5" y="141"/><text fill="#000000" font-family="sans-serif" font-size="14" lengthAdjust="spacing" textLength="57" x="327.5" y="162.9951">Reactor</text></g><!--MD5=[8f0ca18f720f3888bdd81c910c3cfc0f]
entity Handle--><g id="elem_Handle"><rect fill="#F1F1F1" height="46.2969" rx="2.5" ry="2.5" style="stroke:#181818;stroke-width:0.5;" width="89" x="316.5" y="7"/><rect fill="#F1F1F1" height="10" style="stroke:#181818;stroke-width:0.5;" width="15" x="385.5" y="12"/><rect fill="#F1F1F1" height="2" style="stroke:#181818;stroke-width:0.5;" width="4" x="383.5" y="14"/><rect fill="#F1F1F1" height="2" style="stroke:#181818;stroke-width:0.5;" width="4" x="383.5" y="18"/><text fill="#000000" font-family="sans-serif" font-size="14" lengthAdjust="spacing" textLength="49" x="331.5" y="39.9951">Handle</text></g><!--MD5=[a4612cf8b0d41c5312cef1c1468c9935]
entity Event Handler--><g id="elem_Event Handler"><rect fill="#F1F1F1" height="46.2969" rx="2.5" ry="2.5" style="stroke:#181818;stroke-width:0.5;" width="141" x="515.5" y="130"/><rect fill="#F1F1F1" height="10" style="stroke:#181818;stroke-width:0.5;" width="15" x="636.5" y="135"/><rect fill="#F1F1F1" height="2" style="stroke:#181818;stroke-width:0.5;" width="4" x="634.5" y="137"/><rect fill="#F1F1F1" height="2" style="stroke:#181818;stroke-width:0.5;" width="4" x="634.5" y="141"/><text fill="#000000" font-family="sans-serif" font-size="14" lengthAdjust="spacing" textLength="101" x="530.5" y="162.9951">Event Handler</text></g><!--MD5=[56655f8232ac4f39638f1e75d1be9453]
entity Synchronous Event Demuxer--><g id="elem_Synchronous Event Demuxer"><rect fill="#F1F1F1" height="46.2969" rx="2.5" ry="2.5" style="stroke:#181818;stroke-width:0.5;" width="246" x="7" y="130"/><rect fill="#F1F1F1" height="10" style="stroke:#181818;stroke-width:0.5;" width="15" x="233" y="135"/><rect fill="#F1F1F1" height="2" style="stroke:#181818;stroke-width:0.5;" width="4" x="231" y="137"/><rect fill="#F1F1F1" height="2" style="stroke:#181818;stroke-width:0.5;" width="4" x="231" y="141"/><text fill="#000000" font-family="sans-serif" font-size="14" lengthAdjust="spacing" textLength="206" x="22" y="162.9951">Synchronous Event Demuxer</text></g><!--MD5=[56109d538e7b81f8e5e28a42f512661a]
entity Concrete Event Handler A--><g id="elem_Concrete Event Handler A"><rect fill="#F1F1F1" height="46.2969" rx="2.5" ry="2.5" style="stroke:#181818;stroke-width:0.5;" width="226" x="343" y="237"/><rect fill="#F1F1F1" height="10" style="stroke:#181818;stroke-width:0.5;" width="15" x="549" y="242"/><rect fill="#F1F1F1" height="2" style="stroke:#181818;stroke-width:0.5;" width="4" x="547" y="244"/><rect fill="#F1F1F1" height="2" style="stroke:#181818;stroke-width:0.5;" width="4" x="547" y="248"/><text fill="#000000" font-family="sans-serif" font-size="14" lengthAdjust="spacing" textLength="186" x="358" y="269.9951">Concrete Event Handler A</text></g><!--MD5=[3d0ddcec5c692b3455d80cc4941aea21]
entity Concrete Event Handler B--><g id="elem_Concrete Event Handler B"><rect fill="#F1F1F1" height="46.2969" rx="2.5" ry="2.5" style="stroke:#181818;stroke-width:0.5;" width="226" x="604" y="237"/><rect fill="#F1F1F1" height="10" style="stroke:#181818;stroke-width:0.5;" width="15" x="810" y="242"/><rect fill="#F1F1F1" height="2" style="stroke:#181818;stroke-width:0.5;" width="4" x="808" y="244"/><rect fill="#F1F1F1" height="2" style="stroke:#181818;stroke-width:0.5;" width="4" x="808" y="248"/><text fill="#000000" font-family="sans-serif" font-size="14" lengthAdjust="spacing" textLength="186" x="619" y="269.9951">Concrete Event Handler B</text></g><!--MD5=[d016fb9e9c356ba5f134ed964fd122b5]
link Reactor to Event Handler--><g id="link_Reactor_Event Handler"><path d="M409.545,153 C438.852,153 476.832,153 510.044,153 " fill="none" id="Reactor-to-Event Handler" style="stroke:#181818;stroke-width:1.0;"/><polygon fill="#181818" points="515.331,153,506.331,149,510.331,153,506.331,157,515.331,153" style="stroke:#181818;stroke-width:1.0;"/><text fill="#000000" font-family="sans-serif" font-size="13" lengthAdjust="spacing" textLength="69" x="428" y="146.0669">dispatches</text></g><!--MD5=[b51cfcb028230ecd2b558262e5df30f9]
reverse link Reactor to Handle--><g id="link_Reactor_Handle"><path d="M361,124.919 C361,103.307 361,73.405 361,53.193 " fill="none" id="Reactor-backto-Handle" style="stroke:#181818;stroke-width:1.0;"/><polygon fill="#181818" points="361,129.947,365,120.947,361,124.947,357,120.947,361,129.947" style="stroke:#181818;stroke-width:1.0;"/></g><!--MD5=[9f490675a65d3e7e05becc9a1d6efeb0]
reverse link Handle to Event Handler--><g id="link_Handle_Event Handler"><path d="M406.854,55.66 C447.358,77.442 505.886,108.916 544.895,129.895 " fill="none" id="Handle-backto-Event Handler" style="stroke:#181818;stroke-width:1.0;"/><polygon fill="#181818" points="402.007,53.053,408.0398,60.8379,406.4109,55.4207,411.8281,53.7917,402.007,53.053" style="stroke:#181818;stroke-width:1.0;"/><text fill="#000000" font-family="sans-serif" font-size="13" lengthAdjust="spacing" textLength="34" x="488" y="96.0669">owns</text></g><!--MD5=[b2551fc8b7a2441c31e7e2914c2c9345]
reverse link Synchronous Event Demuxer to Reactor--><g id="link_Synchronous Event Demuxer_Reactor"><path d="M258.673,153 C277.763,153 296.366,153 312.361,153 " fill="none" id="Synchronous Event Demuxer-backto-Reactor" style="stroke:#181818;stroke-width:1.0;stroke-dasharray:7.0,7.0;"/><polygon fill="#181818" points="253.277,153,262.277,157,258.277,153,262.277,149,253.277,153" style="stroke:#181818;stroke-width:1.0;"/><text fill="#000000" font-family="sans-serif" font-size="13" lengthAdjust="spacing" textLength="23" x="271.25" y="146.0669">use</text></g><!--MD5=[a109533d934d10d95db0d1f480416cb2]
link Handle to Synchronous Event Demuxer--><g id="link_Handle_Synchronous Event Demuxer"><path d="M318.9,53.053 C278.721,74.099 218.308,105.743 176.675,127.551 " fill="none" id="Handle-to-Synchronous Event Demuxer" style="stroke:#181818;stroke-width:1.0;"/><polygon fill="#181818" points="172.201,129.895,182.0296,129.2631,176.6304,127.5753,178.3181,122.1761,172.201,129.895" style="stroke:#181818;stroke-width:1.0;"/><text fill="#000000" font-family="sans-serif" font-size="13" lengthAdjust="spacing" textLength="47" x="261" y="96.0669">notifies</text></g><!--MD5=[112dda447215d7b562eef6e8dae080f6]
reverse link Event Handler to Concrete Event Handler A--><g id="link_Event Handler_Concrete Event Handler A"><path d="M554.786,179.211 C533.119,196.7118 504.514,219.8156 483.664,236.6559 " fill="none" id="Event Handler-backto-Concrete Event Handler A" style="stroke:#181818;stroke-width:1.0;stroke-dasharray:7.0,7.0;"/><polygon fill="#181818" points="558.748,176.011,549.2336,178.5557,554.8588,179.1533,554.2612,184.7785,558.748,176.011" style="stroke:#181818;stroke-width:1.0;"/></g><!--MD5=[7266064ea34fc9885e9b8b69b63f117b]
reverse link Event Handler to Concrete Event Handler B--><g id="link_Event Handler_Concrete Event Handler B"><path d="M617.454,179.211 C639.288,196.7118 668.113,219.8156 689.123,236.6559 " fill="none" id="Event Handler-backto-Concrete Event Handler B" style="stroke:#181818;stroke-width:1.0;stroke-dasharray:7.0,7.0;"/><polygon fill="#181818" points="613.462,176.011,617.9828,184.761,617.3634,179.1381,622.9863,178.5187,613.462,176.011" style="stroke:#181818;stroke-width:1.0;"/></g><!--MD5=[27fb4cf7ed90eda813a33434756f50c7]
@startuml
component Reactor
component Handle
component "Event Handler"
component "Synchronous Event Demuxer"
component "Concrete Event Handler A"
component "Concrete Event Handler B"

[Reactor] -right-> [Event Handler] : dispatches
[Reactor] <-down- [Handle]
[Event Handler] -left-> [Handle] : owns
[Reactor] .left.> [Synchronous Event Demuxer] : use
[Handle] -down-> [Synchronous Event Demuxer] : notifies

[Concrete Event Handler A] .up.> [Event Handler]
[Concrete Event Handler B] .up.> [Event Handler]
@enduml

PlantUML version 1.2022.7beta11(Unknown compile time)
(GPL source distribution)
Java Runtime: Java(TM) SE Runtime Environment
JVM: Java HotSpot(TM) 64-Bit Server VM
Default Encoding: UTF-8
Language: en
Country: US
--></g></svg>